<svg width="292" height="183" viewBox="0 0 292 183" fill="none" xmlns="http://www.w3.org/2000/svg">
<path d="M12.4 86C9.76 86 7.72 85.32 6.28 83.96C4.92 82.52 4.24 80.48 4.24 77.84V9.56C4.24 6.92 4.92 4.92 6.28 3.56C7.72 2.12 9.76 1.39999 12.4 1.39999H41.2C47.12 1.39999 52.16 2.28 56.32 4.04C60.48 5.8 63.64 8.32 65.8 11.6C68.04 14.88 69.16 18.8 69.16 23.36C69.16 28.48 67.68 32.8 64.72 36.32C61.76 39.84 57.72 42.2 52.6 43.4V41.6C58.52 42.48 63.12 44.72 66.4 48.32C69.68 51.92 71.32 56.6 71.32 62.36C71.32 69.88 68.76 75.72 63.64 79.88C58.6 83.96 51.56 86 42.52 86H12.4ZM19 74.36H40.6C46.04 74.36 50.04 73.32 52.6 71.24C55.16 69.08 56.44 65.88 56.44 61.64C56.44 57.32 55.16 54.12 52.6 52.04C50.04 49.96 46.04 48.92 40.6 48.92H19V74.36ZM19 37.28H38.56C43.84 37.28 47.76 36.28 50.32 34.28C52.96 32.2 54.28 29.16 54.28 25.16C54.28 21.16 52.96 18.16 50.32 16.16C47.76 14.08 43.84 13.04 38.56 13.04H19V37.28ZM112.177 87.2C106.097 87.2 100.817 85.96 96.3372 83.48C91.8572 81 88.3772 77.48 85.8972 72.92C83.4172 68.28 82.1772 62.84 82.1772 56.6C82.1772 51.88 82.8572 47.68 84.2172 44C85.6572 40.24 87.6972 37.04 90.3372 34.4C92.9772 31.68 96.1372 29.64 99.8172 28.28C103.497 26.84 107.617 26.12 112.177 26.12C118.257 26.12 123.537 27.36 128.017 29.84C132.497 32.32 135.977 35.84 138.457 40.4C140.937 44.96 142.177 50.36 142.177 56.6C142.177 61.32 141.457 65.56 140.017 69.32C138.657 73.08 136.657 76.32 134.017 79.04C131.377 81.68 128.217 83.72 124.537 85.16C120.857 86.52 116.737 87.2 112.177 87.2ZM112.177 75.8C115.137 75.8 117.737 75.08 119.977 73.64C122.217 72.2 123.937 70.08 125.137 67.28C126.417 64.4 127.057 60.84 127.057 56.6C127.057 50.2 125.697 45.44 122.977 42.32C120.257 39.12 116.657 37.52 112.177 37.52C109.217 37.52 106.617 38.24 104.377 39.68C102.137 41.04 100.377 43.16 99.0972 46.04C97.8972 48.84 97.2972 52.36 97.2972 56.6C97.2972 62.92 98.6572 67.72 101.377 71C104.097 74.2 107.697 75.8 112.177 75.8ZM181.318 87.2C175.238 87.2 169.958 85.96 165.478 83.48C160.998 81 157.518 77.48 155.038 72.92C152.558 68.28 151.318 62.84 151.318 56.6C151.318 51.88 151.998 47.68 153.358 44C154.798 40.24 156.838 37.04 159.478 34.4C162.118 31.68 165.278 29.64 168.958 28.28C172.638 26.84 176.758 26.12 181.318 26.12C187.398 26.12 192.678 27.36 197.158 29.84C201.638 32.32 205.118 35.84 207.598 40.4C210.078 44.96 211.318 50.36 211.318 56.6C211.318 61.32 210.598 65.56 209.158 69.32C207.798 73.08 205.798 76.32 203.158 79.04C200.518 81.68 197.358 83.72 193.678 85.16C189.998 86.52 185.878 87.2 181.318 87.2ZM181.318 75.8C184.278 75.8 186.878 75.08 189.118 73.64C191.358 72.2 193.078 70.08 194.278 67.28C195.558 64.4 196.198 60.84 196.198 56.6C196.198 50.2 194.838 45.44 192.118 42.32C189.398 39.12 185.798 37.52 181.318 37.52C178.358 37.52 175.758 38.24 173.518 39.68C171.278 41.04 169.518 43.16 168.238 46.04C167.038 48.84 166.438 52.36 166.438 56.6C166.438 62.92 167.798 67.72 170.518 71C173.238 74.2 176.838 75.8 181.318 75.8ZM231.138 86.96C228.738 86.96 226.898 86.32 225.618 85.04C224.338 83.68 223.698 81.76 223.698 79.28V8C223.698 5.51999 224.338 3.63999 225.618 2.36C226.898 1.07999 228.738 0.439993 231.138 0.439993C233.538 0.439993 235.378 1.07999 236.658 2.36C238.018 3.63999 238.698 5.51999 238.698 8V52.28H238.938L258.738 31.4C260.338 29.8 261.738 28.56 262.938 27.68C264.138 26.8 265.778 26.36 267.858 26.36C269.938 26.36 271.498 26.92 272.538 28.04C273.658 29.08 274.218 30.36 274.218 31.88C274.218 33.4 273.498 34.92 272.058 36.44L251.178 58.52V52.28L274.098 77C275.538 78.52 276.178 80.08 276.018 81.68C275.938 83.2 275.298 84.48 274.098 85.52C272.898 86.48 271.378 86.96 269.538 86.96C267.298 86.96 265.498 86.52 264.138 85.64C262.858 84.76 261.418 83.44 259.818 81.68L238.938 59.84H238.698V79.28C238.698 84.4 236.178 86.96 231.138 86.96ZM33.4 182.2C29.88 182.2 26.36 181.92 22.84 181.36C19.32 180.88 16 180.12 12.88 179.08C9.76 177.96 6.96 176.6 4.48 175C3.04 174.04 2.04 172.88 1.48 171.52C0.92 170.16 0.72 168.84 0.88 167.56C1.12 166.2 1.64 165.04 2.44 164.08C3.32 163.04 4.4 162.4 5.68 162.16C6.96 161.92 8.36 162.28 9.88 163.24C13.4 165.32 17.12 166.84 21.04 167.8C24.96 168.76 29.08 169.24 33.4 169.24C39.72 169.24 44.32 168.2 47.2 166.12C50.08 163.96 51.52 161.2 51.52 157.84C51.52 155.04 50.48 152.84 48.4 151.24C46.4 149.64 42.92 148.32 37.96 147.28L24.76 144.52C17.16 142.92 11.48 140.24 7.72 136.48C4.04 132.64 2.2 127.6 2.2 121.36C2.2 117.44 3 113.88 4.6 110.68C6.2 107.48 8.44 104.72 11.32 102.4C14.28 100.08 17.76 98.32 21.76 97.12C25.84 95.84 30.32 95.2 35.2 95.2C40 95.2 44.56 95.8 48.88 97C53.2 98.2 57.08 99.96 60.52 102.28C61.8 103.16 62.64 104.24 63.04 105.52C63.52 106.8 63.64 108.08 63.4 109.36C63.16 110.56 62.6 111.6 61.72 112.48C60.84 113.36 59.72 113.88 58.36 114.04C57.08 114.2 55.6 113.8 53.92 112.84C50.96 111.16 47.96 109.96 44.92 109.24C41.88 108.52 38.6 108.16 35.08 108.16C31.4 108.16 28.24 108.68 25.6 109.72C22.96 110.76 20.92 112.24 19.48 114.16C18.12 116 17.44 118.2 17.44 120.76C17.44 123.64 18.4 125.96 20.32 127.72C22.24 129.4 25.52 130.72 30.16 131.68L43.24 134.44C51.16 136.12 57.04 138.76 60.88 142.36C64.8 145.96 66.76 150.76 66.76 156.76C66.76 160.6 65.96 164.08 64.36 167.2C62.84 170.32 60.6 173 57.64 175.24C54.76 177.48 51.28 179.2 47.2 180.4C43.12 181.6 38.52 182.2 33.4 182.2ZM104.797 182.2C99.5972 182.2 95.2372 181.32 91.7172 179.56C88.2772 177.8 85.7172 175.24 84.0372 171.88C82.3572 168.44 81.5172 164.2 81.5172 159.16V133.6H75.2772C73.3572 133.6 71.8772 133.12 70.8372 132.16C69.7972 131.12 69.2772 129.72 69.2772 127.96C69.2772 126.12 69.7972 124.72 70.8372 123.76C71.8772 122.8 73.3572 122.32 75.2772 122.32H81.5172V111.4C81.5172 108.92 82.1572 107.04 83.4372 105.76C84.7972 104.48 86.6772 103.84 89.0772 103.84C91.4772 103.84 93.3172 104.48 94.5972 105.76C95.8772 107.04 96.5172 108.92 96.5172 111.4V122.32H109.237C111.157 122.32 112.637 122.8 113.677 123.76C114.717 124.72 115.237 126.12 115.237 127.96C115.237 129.72 114.717 131.12 113.677 132.16C112.637 133.12 111.157 133.6 109.237 133.6H96.5172V158.32C96.5172 162.16 97.3572 165.04 99.0372 166.96C100.717 168.88 103.437 169.84 107.197 169.84C108.557 169.84 109.757 169.72 110.797 169.48C111.837 169.24 112.757 169.08 113.557 169C114.517 168.92 115.317 169.24 115.957 169.96C116.597 170.6 116.917 171.96 116.917 174.04C116.917 175.64 116.637 177.08 116.077 178.36C115.597 179.56 114.677 180.4 113.317 180.88C112.277 181.2 110.917 181.48 109.237 181.72C107.557 182.04 106.077 182.2 104.797 182.2ZM150.146 182.2C144.066 182.2 138.786 180.96 134.306 178.48C129.826 176 126.346 172.48 123.866 167.92C121.386 163.28 120.146 157.84 120.146 151.6C120.146 146.88 120.826 142.68 122.186 139C123.626 135.24 125.666 132.04 128.306 129.4C130.946 126.68 134.106 124.64 137.786 123.28C141.466 121.84 145.586 121.12 150.146 121.12C156.226 121.12 161.506 122.36 165.986 124.84C170.466 127.32 173.946 130.84 176.426 135.4C178.906 139.96 180.146 145.36 180.146 151.6C180.146 156.32 179.426 160.56 177.986 164.32C176.626 168.08 174.626 171.32 171.986 174.04C169.346 176.68 166.186 178.72 162.506 180.16C158.826 181.52 154.706 182.2 150.146 182.2ZM150.146 170.8C153.106 170.8 155.706 170.08 157.946 168.64C160.186 167.2 161.906 165.08 163.106 162.28C164.386 159.4 165.026 155.84 165.026 151.6C165.026 145.2 163.666 140.44 160.946 137.32C158.226 134.12 154.626 132.52 150.146 132.52C147.186 132.52 144.586 133.24 142.346 134.68C140.106 136.04 138.346 138.16 137.066 141.04C135.866 143.84 135.266 147.36 135.266 151.6C135.266 157.92 136.626 162.72 139.346 166C142.066 169.2 145.666 170.8 150.146 170.8ZM200.207 181.96C197.727 181.96 195.807 181.32 194.447 180.04C193.167 178.68 192.527 176.76 192.527 174.28V128.92C192.527 126.44 193.167 124.56 194.447 123.28C195.727 122 197.527 121.36 199.847 121.36C202.167 121.36 203.967 122 205.247 123.28C206.527 124.56 207.167 126.44 207.167 128.92V136.48H205.967C207.087 131.68 209.287 128.04 212.567 125.56C215.847 123.08 220.207 121.6 225.647 121.12C227.327 120.96 228.647 121.4 229.607 122.44C230.647 123.4 231.247 124.92 231.407 127C231.567 129 231.087 130.64 229.967 131.92C228.927 133.12 227.327 133.84 225.167 134.08L222.527 134.32C217.647 134.8 213.967 136.32 211.487 138.88C209.007 141.36 207.767 144.88 207.767 149.44V174.28C207.767 176.76 207.127 178.68 205.847 180.04C204.567 181.32 202.687 181.96 200.207 181.96ZM267.501 182.2C260.861 182.2 255.141 180.96 250.341 178.48C245.541 176 241.821 172.48 239.181 167.92C236.621 163.36 235.341 157.96 235.341 151.72C235.341 145.64 236.581 140.32 239.061 135.76C241.621 131.2 245.101 127.64 249.501 125.08C253.981 122.44 259.061 121.12 264.741 121.12C268.901 121.12 272.621 121.8 275.901 123.16C279.261 124.52 282.101 126.48 284.421 129.04C286.821 131.6 288.621 134.72 289.821 138.4C291.101 142 291.741 146.08 291.741 150.64C291.741 152.08 291.221 153.2 290.181 154C289.221 154.72 287.821 155.08 285.981 155.08H247.461V146.44H281.181L279.261 148.24C279.261 144.56 278.701 141.48 277.581 139C276.541 136.52 274.981 134.64 272.901 133.36C270.901 132 268.381 131.32 265.341 131.32C261.981 131.32 259.101 132.12 256.701 133.72C254.381 135.24 252.581 137.44 251.301 140.32C250.101 143.12 249.501 146.48 249.501 150.4V151.24C249.501 157.8 251.021 162.72 254.061 166C257.181 169.2 261.741 170.8 267.741 170.8C269.821 170.8 272.141 170.56 274.701 170.08C277.341 169.52 279.821 168.6 282.141 167.32C283.821 166.36 285.301 165.96 286.581 166.12C287.861 166.2 288.861 166.64 289.581 167.44C290.381 168.24 290.861 169.24 291.021 170.44C291.181 171.56 290.941 172.72 290.301 173.92C289.741 175.12 288.741 176.16 287.301 177.04C284.501 178.8 281.261 180.12 277.581 181C273.981 181.8 270.621 182.2 267.501 182.2Z" fill="#0085FF"/>
</svg>
