<svg width="145" height="54" viewBox="0 0 145 54" fill="none" xmlns="http://www.w3.org/2000/svg">
<path d="M5.075 25C4.305 25 3.71 24.8017 3.29 24.405C2.89333 23.985 2.695 23.39 2.695 22.62V2.705C2.695 1.935 2.89333 1.35167 3.29 0.954999C3.71 0.534999 4.305 0.324998 5.075 0.324998H13.475C15.2017 0.324998 16.6717 0.581665 17.885 1.095C19.0983 1.60833 20.02 2.34333 20.65 3.3C21.3033 4.25667 21.63 5.4 21.63 6.73C21.63 8.22333 21.1983 9.48333 20.335 10.51C19.4717 11.5367 18.2933 12.225 16.8 12.575V12.05C18.5267 12.3067 19.8683 12.96 20.825 14.01C21.7817 15.06 22.26 16.425 22.26 18.105C22.26 20.2983 21.5133 22.0017 20.02 23.215C18.55 24.405 16.4967 25 13.86 25H5.075ZM7 21.605H13.3C14.8867 21.605 16.0533 21.3017 16.8 20.695C17.5467 20.065 17.92 19.1317 17.92 17.895C17.92 16.635 17.5467 15.7017 16.8 15.095C16.0533 14.4883 14.8867 14.185 13.3 14.185H7V21.605ZM7 10.79H12.705C14.245 10.79 15.3883 10.4983 16.135 9.915C16.905 9.30833 17.29 8.42167 17.29 7.255C17.29 6.08833 16.905 5.21333 16.135 4.63C15.3883 4.02333 14.245 3.72 12.705 3.72H7V10.79ZM34.1767 25.35C32.4033 25.35 30.8633 24.9883 29.5567 24.265C28.25 23.5417 27.235 22.515 26.5117 21.185C25.7883 19.8317 25.4267 18.245 25.4267 16.425C25.4267 15.0483 25.625 13.8233 26.0217 12.75C26.4417 11.6533 27.0367 10.72 27.8067 9.95C28.5767 9.15667 29.4983 8.56167 30.5717 8.165C31.645 7.745 32.8467 7.535 34.1767 7.535C35.95 7.535 37.49 7.89667 38.7967 8.62C40.1033 9.34333 41.1183 10.37 41.8417 11.7C42.565 13.03 42.9267 14.605 42.9267 16.425C42.9267 17.8017 42.7167 19.0383 42.2967 20.135C41.9 21.2317 41.3167 22.1767 40.5467 22.97C39.7767 23.74 38.855 24.335 37.7817 24.755C36.7083 25.1517 35.5067 25.35 34.1767 25.35ZM34.1767 22.025C35.04 22.025 35.7983 21.815 36.4517 21.395C37.105 20.975 37.6067 20.3567 37.9567 19.54C38.33 18.7 38.5167 17.6617 38.5167 16.425C38.5167 14.5583 38.12 13.17 37.3267 12.26C36.5333 11.3267 35.4833 10.86 34.1767 10.86C33.3133 10.86 32.555 11.07 31.9017 11.49C31.2483 11.8867 30.735 12.505 30.3617 13.345C30.0117 14.1617 29.8367 15.1883 29.8367 16.425C29.8367 18.2683 30.2333 19.6683 31.0267 20.625C31.82 21.5583 32.87 22.025 34.1767 22.025ZM54.3427 25.35C52.5694 25.35 51.0294 24.9883 49.7227 24.265C48.416 23.5417 47.401 22.515 46.6777 21.185C45.9544 19.8317 45.5927 18.245 45.5927 16.425C45.5927 15.0483 45.791 13.8233 46.1877 12.75C46.6077 11.6533 47.2027 10.72 47.9727 9.95C48.7427 9.15667 49.6644 8.56167 50.7377 8.165C51.811 7.745 53.0127 7.535 54.3427 7.535C56.116 7.535 57.656 7.89667 58.9627 8.62C60.2694 9.34333 61.2844 10.37 62.0077 11.7C62.731 13.03 63.0927 14.605 63.0927 16.425C63.0927 17.8017 62.8827 19.0383 62.4627 20.135C62.066 21.2317 61.4827 22.1767 60.7127 22.97C59.9427 23.74 59.021 24.335 57.9477 24.755C56.8744 25.1517 55.6727 25.35 54.3427 25.35ZM54.3427 22.025C55.206 22.025 55.9644 21.815 56.6177 21.395C57.271 20.975 57.7727 20.3567 58.1227 19.54C58.496 18.7 58.6827 17.6617 58.6827 16.425C58.6827 14.5583 58.286 13.17 57.4927 12.26C56.6994 11.3267 55.6494 10.86 54.3427 10.86C53.4794 10.86 52.721 11.07 52.0677 11.49C51.4144 11.8867 50.901 12.505 50.5277 13.345C50.1777 14.1617 50.0027 15.1883 50.0027 16.425C50.0027 18.2683 50.3994 19.6683 51.1927 20.625C51.986 21.5583 53.036 22.025 54.3427 22.025ZM68.8737 25.28C68.1737 25.28 67.637 25.0933 67.2637 24.72C66.8904 24.3233 66.7037 23.7633 66.7037 23.04V2.25C66.7037 1.52666 66.8904 0.978332 67.2637 0.604999C67.637 0.231665 68.1737 0.0449979 68.8737 0.0449979C69.5737 0.0449979 70.1104 0.231665 70.4837 0.604999C70.8804 0.978332 71.0787 1.52666 71.0787 2.25V15.165H71.1487L76.9237 9.075C77.3904 8.60833 77.7987 8.24667 78.1487 7.99C78.4987 7.73333 78.977 7.605 79.5837 7.605C80.1904 7.605 80.6454 7.76833 80.9487 8.095C81.2754 8.39833 81.4387 8.77167 81.4387 9.215C81.4387 9.65833 81.2287 10.1017 80.8087 10.545L74.7187 16.985V15.165L81.4037 22.375C81.8237 22.8183 82.0104 23.2733 81.9637 23.74C81.9404 24.1833 81.7537 24.5567 81.4037 24.86C81.0537 25.14 80.6104 25.28 80.0737 25.28C79.4204 25.28 78.8954 25.1517 78.4987 24.895C78.1254 24.6383 77.7054 24.2533 77.2387 23.74L71.1487 17.37H71.0787V23.04C71.0787 24.5333 70.3437 25.28 68.8737 25.28ZM11.2 53.35C10.1733 53.35 9.14667 53.2683 8.12 53.105C7.09333 52.965 6.125 52.7433 5.215 52.44C4.305 52.1133 3.48833 51.7167 2.765 51.25C2.345 50.97 2.05333 50.6317 1.89 50.235C1.72667 49.8383 1.66833 49.4533 1.715 49.08C1.785 48.6833 1.93667 48.345 2.17 48.065C2.42667 47.7617 2.74167 47.575 3.115 47.505C3.48833 47.435 3.89667 47.54 4.34 47.82C5.36667 48.4267 6.45167 48.87 7.595 49.15C8.73833 49.43 9.94 49.57 11.2 49.57C13.0433 49.57 14.385 49.2667 15.225 48.66C16.065 48.03 16.485 47.225 16.485 46.245C16.485 45.4283 16.1817 44.7867 15.575 44.32C14.9917 43.8533 13.9767 43.4683 12.53 43.165L8.68 42.36C6.46333 41.8933 4.80667 41.1117 3.71 40.015C2.63667 38.895 2.1 37.425 2.1 35.605C2.1 34.4617 2.33333 33.4233 2.8 32.49C3.26667 31.5567 3.92 30.7517 4.76 30.075C5.62333 29.3983 6.63833 28.885 7.805 28.535C8.995 28.1617 10.3017 27.975 11.725 27.975C13.125 27.975 14.455 28.15 15.715 28.5C16.975 28.85 18.1067 29.3633 19.11 30.04C19.4833 30.2967 19.7283 30.6117 19.845 30.985C19.985 31.3583 20.02 31.7317 19.95 32.105C19.88 32.455 19.7167 32.7583 19.46 33.015C19.2033 33.2717 18.8767 33.4233 18.48 33.47C18.1067 33.5167 17.675 33.4 17.185 33.12C16.3217 32.63 15.4467 32.28 14.56 32.07C13.6733 31.86 12.7167 31.755 11.69 31.755C10.6167 31.755 9.695 31.9067 8.925 32.21C8.155 32.5133 7.56 32.945 7.14 33.505C6.74333 34.0417 6.545 34.6833 6.545 35.43C6.545 36.27 6.825 36.9467 7.385 37.46C7.945 37.95 8.90167 38.335 10.255 38.615L14.07 39.42C16.38 39.91 18.095 40.68 19.215 41.73C20.3583 42.78 20.93 44.18 20.93 45.93C20.93 47.05 20.6967 48.065 20.23 48.975C19.7867 49.885 19.1333 50.6667 18.27 51.32C17.43 51.9733 16.415 52.475 15.225 52.825C14.035 53.175 12.6933 53.35 11.2 53.35ZM32.0242 53.35C30.5075 53.35 29.2358 53.0933 28.2092 52.58C27.2058 52.0667 26.4592 51.32 25.9692 50.34C25.4792 49.3367 25.2342 48.1 25.2342 46.63V39.175H23.4142C22.8542 39.175 22.4225 39.035 22.1192 38.755C21.8158 38.4517 21.6642 38.0433 21.6642 37.53C21.6642 36.9933 21.8158 36.585 22.1192 36.305C22.4225 36.025 22.8542 35.885 23.4142 35.885H25.2342V32.7C25.2342 31.9767 25.4208 31.4283 25.7942 31.055C26.1908 30.6817 26.7392 30.495 27.4392 30.495C28.1392 30.495 28.6758 30.6817 29.0492 31.055C29.4225 31.4283 29.6092 31.9767 29.6092 32.7V35.885H33.3192C33.8792 35.885 34.3108 36.025 34.6142 36.305C34.9175 36.585 35.0692 36.9933 35.0692 37.53C35.0692 38.0433 34.9175 38.4517 34.6142 38.755C34.3108 39.035 33.8792 39.175 33.3192 39.175H29.6092V46.385C29.6092 47.505 29.8542 48.345 30.3442 48.905C30.8342 49.465 31.6275 49.745 32.7242 49.745C33.1208 49.745 33.4708 49.71 33.7742 49.64C34.0775 49.57 34.3458 49.5233 34.5792 49.5C34.8592 49.4767 35.0925 49.57 35.2792 49.78C35.4658 49.9667 35.5592 50.3633 35.5592 50.97C35.5592 51.4367 35.4775 51.8567 35.3142 52.23C35.1742 52.58 34.9058 52.825 34.5092 52.965C34.2058 53.0583 33.8092 53.14 33.3192 53.21C32.8292 53.3033 32.3975 53.35 32.0242 53.35ZM45.2509 53.35C43.4776 53.35 41.9376 52.9883 40.6309 52.265C39.3242 51.5417 38.3092 50.515 37.5859 49.185C36.8626 47.8317 36.5009 46.245 36.5009 44.425C36.5009 43.0483 36.6992 41.8233 37.0959 40.75C37.5159 39.6533 38.1109 38.72 38.8809 37.95C39.6509 37.1567 40.5726 36.5617 41.6459 36.165C42.7192 35.745 43.9209 35.535 45.2509 35.535C47.0242 35.535 48.5642 35.8967 49.8709 36.62C51.1776 37.3433 52.1926 38.37 52.9159 39.7C53.6392 41.03 54.0009 42.605 54.0009 44.425C54.0009 45.8017 53.7909 47.0383 53.3709 48.135C52.9742 49.2317 52.3909 50.1767 51.6209 50.97C50.8509 51.74 49.9292 52.335 48.8559 52.755C47.7826 53.1517 46.5809 53.35 45.2509 53.35ZM45.2509 50.025C46.1142 50.025 46.8726 49.815 47.5259 49.395C48.1792 48.975 48.6809 48.3567 49.0309 47.54C49.4042 46.7 49.5909 45.6617 49.5909 44.425C49.5909 42.5583 49.1942 41.17 48.4009 40.26C47.6076 39.3267 46.5576 38.86 45.2509 38.86C44.3876 38.86 43.6292 39.07 42.9759 39.49C42.3226 39.8867 41.8092 40.505 41.4359 41.345C41.0859 42.1617 40.9109 43.1883 40.9109 44.425C40.9109 46.2683 41.3076 47.6683 42.1009 48.625C42.8942 49.5583 43.9442 50.025 45.2509 50.025ZM59.8519 53.28C59.1286 53.28 58.5686 53.0933 58.1719 52.72C57.7986 52.3233 57.6119 51.7633 57.6119 51.04V37.81C57.6119 37.0867 57.7986 36.5383 58.1719 36.165C58.5452 35.7917 59.0702 35.605 59.7469 35.605C60.4236 35.605 60.9486 35.7917 61.3219 36.165C61.6952 36.5383 61.8819 37.0867 61.8819 37.81V40.015H61.5319C61.8586 38.615 62.5002 37.5533 63.4569 36.83C64.4136 36.1067 65.6852 35.675 67.2719 35.535C67.7619 35.4883 68.1469 35.6167 68.4269 35.92C68.7302 36.2 68.9052 36.6433 68.9519 37.25C68.9986 37.8333 68.8586 38.3117 68.5319 38.685C68.2286 39.035 67.7619 39.245 67.1319 39.315L66.3619 39.385C64.9386 39.525 63.8652 39.9683 63.1419 40.715C62.4186 41.4383 62.0569 42.465 62.0569 43.795V51.04C62.0569 51.7633 61.8702 52.3233 61.4969 52.72C61.1236 53.0933 60.5752 53.28 59.8519 53.28ZM79.4795 53.35C77.5429 53.35 75.8745 52.9883 74.4745 52.265C73.0745 51.5417 71.9895 50.515 71.2195 49.185C70.4729 47.855 70.0995 46.28 70.0995 44.46C70.0995 42.6867 70.4612 41.135 71.1845 39.805C71.9312 38.475 72.9462 37.4367 74.2295 36.69C75.5362 35.92 77.0179 35.535 78.6745 35.535C79.8879 35.535 80.9729 35.7333 81.9295 36.13C82.9095 36.5267 83.7379 37.0983 84.4145 37.845C85.1145 38.5917 85.6395 39.5017 85.9895 40.575C86.3629 41.625 86.5495 42.815 86.5495 44.145C86.5495 44.565 86.3979 44.8917 86.0945 45.125C85.8145 45.335 85.4062 45.44 84.8695 45.44H73.6345V42.92H83.4695L82.9095 43.445C82.9095 42.3717 82.7462 41.4733 82.4195 40.75C82.1162 40.0267 81.6612 39.4783 81.0545 39.105C80.4712 38.7083 79.7362 38.51 78.8495 38.51C77.8695 38.51 77.0295 38.7433 76.3295 39.21C75.6529 39.6533 75.1279 40.295 74.7545 41.135C74.4045 41.9517 74.2295 42.9317 74.2295 44.075V44.32C74.2295 46.2333 74.6729 47.6683 75.5595 48.625C76.4695 49.5583 77.7995 50.025 79.5495 50.025C80.1562 50.025 80.8329 49.955 81.5795 49.815C82.3495 49.6517 83.0729 49.3833 83.7495 49.01C84.2395 48.73 84.6712 48.6133 85.0445 48.66C85.4179 48.6833 85.7095 48.8117 85.9195 49.045C86.1529 49.2783 86.2929 49.57 86.3395 49.92C86.3862 50.2467 86.3162 50.585 86.1295 50.935C85.9662 51.285 85.6745 51.5883 85.2545 51.845C84.4379 52.3583 83.4929 52.7433 82.4195 53C81.3695 53.2333 80.3895 53.35 79.4795 53.35Z" fill="#2570BB"/>
<path d="M90 34.12C89.456 34.12 89.016 33.952 88.68 33.616C88.36 33.28 88.2 32.848 88.2 32.32C88.2 31.808 88.36 31.392 88.68 31.072C89.016 30.736 89.456 30.568 90 30.568C90.56 30.568 90.992 30.736 91.296 31.072C91.616 31.392 91.776 31.808 91.776 32.32C91.776 32.848 91.616 33.28 91.296 33.616C90.992 33.952 90.56 34.12 90 34.12ZM99.4918 34.24C98.2598 34.24 97.1878 33.992 96.2758 33.496C95.3638 32.984 94.6598 32.264 94.1638 31.336C93.6678 30.408 93.4198 29.32 93.4198 28.072C93.4198 27.128 93.5558 26.288 93.8278 25.552C94.1158 24.8 94.5238 24.168 95.0518 23.656C95.5798 23.128 96.2198 22.728 96.9718 22.456C97.7238 22.168 98.5638 22.024 99.4918 22.024C100.02 22.024 100.588 22.096 101.196 22.24C101.82 22.384 102.404 22.624 102.948 22.96C103.204 23.12 103.372 23.312 103.452 23.536C103.532 23.76 103.548 23.992 103.5 24.232C103.452 24.456 103.348 24.656 103.188 24.832C103.044 24.992 102.86 25.096 102.636 25.144C102.412 25.176 102.164 25.12 101.892 24.976C101.54 24.768 101.18 24.616 100.812 24.52C100.444 24.408 100.092 24.352 99.7558 24.352C99.2278 24.352 98.7638 24.44 98.3638 24.616C97.9638 24.776 97.6198 25.016 97.3318 25.336C97.0598 25.64 96.8518 26.024 96.7078 26.488C96.5638 26.952 96.4918 27.488 96.4918 28.096C96.4918 29.28 96.7718 30.216 97.3318 30.904C97.9078 31.576 98.7158 31.912 99.7558 31.912C100.092 31.912 100.436 31.864 100.788 31.768C101.156 31.672 101.524 31.52 101.892 31.312C102.164 31.168 102.404 31.12 102.612 31.168C102.836 31.216 103.02 31.328 103.164 31.504C103.308 31.664 103.396 31.864 103.428 32.104C103.46 32.328 103.428 32.552 103.332 32.776C103.252 33 103.092 33.184 102.852 33.328C102.324 33.648 101.764 33.88 101.172 34.024C100.58 34.168 100.02 34.24 99.4918 34.24ZM110.506 34.24C109.29 34.24 108.234 33.992 107.338 33.496C106.442 33 105.746 32.296 105.25 31.384C104.754 30.456 104.506 29.368 104.506 28.12C104.506 27.176 104.642 26.336 104.914 25.6C105.202 24.848 105.61 24.208 106.138 23.68C106.666 23.136 107.298 22.728 108.034 22.456C108.77 22.168 109.594 22.024 110.506 22.024C111.722 22.024 112.778 22.272 113.674 22.768C114.57 23.264 115.266 23.968 115.762 24.88C116.258 25.792 116.506 26.872 116.506 28.12C116.506 29.064 116.362 29.912 116.074 30.664C115.802 31.416 115.402 32.064 114.874 32.608C114.346 33.136 113.714 33.544 112.978 33.832C112.242 34.104 111.418 34.24 110.506 34.24ZM110.506 31.96C111.098 31.96 111.618 31.816 112.066 31.528C112.514 31.24 112.858 30.816 113.098 30.256C113.354 29.68 113.482 28.968 113.482 28.12C113.482 26.84 113.21 25.888 112.666 25.264C112.122 24.624 111.402 24.304 110.506 24.304C109.914 24.304 109.394 24.448 108.946 24.736C108.498 25.008 108.146 25.432 107.89 26.008C107.65 26.568 107.53 27.272 107.53 28.12C107.53 29.384 107.802 30.344 108.346 31C108.89 31.64 109.61 31.96 110.506 31.96ZM120.518 34.192C120.038 34.192 119.67 34.064 119.414 33.808C119.158 33.536 119.03 33.152 119.03 32.656V23.584C119.03 23.088 119.158 22.712 119.414 22.456C119.67 22.2 120.03 22.072 120.494 22.072C120.958 22.072 121.318 22.2 121.574 22.456C121.83 22.712 121.958 23.088 121.958 23.584V25.336L121.694 24.616C122.014 23.816 122.51 23.184 123.182 22.72C123.854 22.256 124.654 22.024 125.582 22.024C126.526 22.024 127.302 22.248 127.91 22.696C128.518 23.144 128.942 23.832 129.182 24.76H128.846C129.166 23.912 129.694 23.248 130.43 22.768C131.166 22.272 132.014 22.024 132.974 22.024C133.87 22.024 134.606 22.2 135.182 22.552C135.774 22.904 136.214 23.44 136.502 24.16C136.79 24.864 136.934 25.76 136.934 26.848V32.656C136.934 33.152 136.798 33.536 136.526 33.808C136.27 34.064 135.902 34.192 135.422 34.192C134.942 34.192 134.574 34.064 134.318 33.808C134.062 33.536 133.934 33.152 133.934 32.656V26.968C133.934 26.072 133.782 25.416 133.478 25C133.19 24.584 132.694 24.376 131.99 24.376C131.206 24.376 130.59 24.656 130.142 25.216C129.694 25.76 129.47 26.52 129.47 27.496V32.656C129.47 33.152 129.342 33.536 129.086 33.808C128.83 34.064 128.462 34.192 127.982 34.192C127.502 34.192 127.126 34.064 126.854 33.808C126.598 33.536 126.47 33.152 126.47 32.656V26.968C126.47 26.072 126.318 25.416 126.014 25C125.726 24.584 125.238 24.376 124.55 24.376C123.766 24.376 123.15 24.656 122.702 25.216C122.254 25.76 122.03 26.52 122.03 27.496V32.656C122.03 33.68 121.526 34.192 120.518 34.192Z" fill="#2570BB"/>
</svg>
